<?xml version="1.0" encoding="utf-8"?>
<!-- Generator: Adobe Illustrator 21.0.2, SVG Export Plug-In . SVG Version: 6.00 Build 0)  -->
<svg version="1.1" id="Layer_1" xmlns="http://www.w3.org/2000/svg" xmlns:xlink="http://www.w3.org/1999/xlink" x="0px" y="0px"
	 viewBox="0 0 720 288" style="enable-background:new 0 0 720 288;" xml:space="preserve">
<style type="text/css">
	.st0{fill:url(#SVGID_1_);}
	.st1{clip-path:url(#SVGID_3_);fill:url(#SVGID_4_);}
	.st2{clip-path:url(#SVGID_3_);}
	.st3{fill:#FFFFFF;}
	.st4{fill:url(#SVGID_5_);}
	.st5{fill:url(#SVGID_6_);}
	.st6{fill:url(#SVGID_7_);}
	.st7{fill:url(#SVGID_8_);}
	.st8{fill:url(#SVGID_9_);}
	.st9{fill:url(#SVGID_10_);}
	.st10{fill:url(#SVGID_11_);}
	.st11{fill:url(#SVGID_12_);}
	.st12{fill:#FFFFFF;stroke:#000000;stroke-miterlimit:10;}
	.st13{font-family:'AstronBoyVideo';}
	.st14{font-size:189.974px;}
</style>
<g>
	<radialGradient id="SVGID_1_" cx="468.2136" cy="330.3778" r="567.2941" gradientUnits="userSpaceOnUse">
		<stop  offset="0" style="stop-color:#00B7FA"/>
		<stop  offset="3.288354e-02" style="stop-color:#00A1E3"/>
		<stop  offset="0.1077" style="stop-color:#0073B4"/>
		<stop  offset="0.1826" style="stop-color:#004E8D"/>
		<stop  offset="0.2562" style="stop-color:#00316F"/>
		<stop  offset="0.3281" style="stop-color:#001C59"/>
		<stop  offset="0.3976" style="stop-color:#000F4C"/>
		<stop  offset="0.462" style="stop-color:#000B48"/>
		<stop  offset="1" style="stop-color:#000000"/>
	</radialGradient>
	<rect x="7.4" y="2.7" class="st0" width="704.9" height="282"/>
	<g>
		<defs>
			<rect id="SVGID_2_" x="7.4" y="2.7" width="704.9" height="282"/>
		</defs>
		<use xlink:href="#SVGID_2_"  style="overflow:visible;fill:#02092E;"/>
		<clipPath id="SVGID_3_">
			<use xlink:href="#SVGID_2_"  style="overflow:visible;"/>
		</clipPath>
		<radialGradient id="SVGID_4_" cx="310.3023" cy="299.7621" r="275.8141" gradientUnits="userSpaceOnUse">
			<stop  offset="0.1023" style="stop-color:#A03D00"/>
			<stop  offset="0.2039" style="stop-color:#762D00"/>
			<stop  offset="0.3106" style="stop-color:#521F00"/>
			<stop  offset="0.4231" style="stop-color:#341400"/>
			<stop  offset="0.5415" style="stop-color:#1D0B00"/>
			<stop  offset="0.6684" style="stop-color:#0D0500"/>
			<stop  offset="0.8098" style="stop-color:#030100"/>
			<stop  offset="0.9946" style="stop-color:#000000"/>
		</radialGradient>
		<circle class="st1" cx="310.3" cy="299.8" r="275.8"/>
		<g class="st2">
			<g>
				
					<rect x="-342.1" y="346.7" transform="matrix(0.7071 -0.7071 0.7071 0.7071 -289.7235 -5.6281)" class="st3" width="380.8" height="0.5"/>
			</g>
			<g>
				
					<rect x="-327.6" y="343.3" transform="matrix(0.7071 -0.7071 0.7071 0.7071 -283.1166 3.6518)" class="st3" width="380.8" height="0.5"/>
			</g>
			<g>
				
					<rect x="-313.1" y="340" transform="matrix(0.7071 -0.7071 0.7071 0.7071 -276.5198 12.9363)" class="st3" width="380.8" height="0.5"/>
			</g>
			<g>
				
					<rect x="-298.6" y="336.7" transform="matrix(0.7071 -0.7071 0.7071 0.7071 -269.9179 22.2185)" class="st3" width="380.8" height="0.5"/>
			</g>
			<g>
				
					<rect x="-284" y="333.4" transform="matrix(0.7072 -0.707 0.707 0.7072 -263.2734 31.4766)" class="st3" width="380.8" height="0.5"/>
			</g>
			<g>
				
					<rect x="-269.5" y="330" transform="matrix(0.7071 -0.7071 0.7071 0.7071 -256.7143 40.7827)" class="st3" width="380.8" height="0.5"/>
			</g>
			<g>
				
					<rect x="-255" y="326.7" transform="matrix(0.7071 -0.7071 0.7071 0.7071 -250.1074 50.0619)" class="st3" width="380.8" height="0.5"/>
			</g>
			<g>
				
					<rect x="-240.5" y="323.4" transform="matrix(0.7071 -0.7071 0.7071 0.7071 -243.5105 59.3473)" class="st3" width="380.8" height="0.5"/>
			</g>
			<g>
				
					<rect x="-226" y="320" transform="matrix(0.7071 -0.7071 0.7071 0.7071 -236.9087 68.6294)" class="st3" width="380.8" height="0.5"/>
			</g>
			<g>
				
					<rect x="-211.5" y="316.7" transform="matrix(0.7071 -0.7071 0.7071 0.7071 -230.3068 77.9115)" class="st3" width="380.8" height="0.5"/>
			</g>
			<g>
				
					<rect x="-197" y="313.4" transform="matrix(0.7071 -0.7071 0.7071 0.7071 -223.7049 87.1939)" class="st3" width="380.8" height="0.5"/>
			</g>
			<g>
				
					<rect x="-182.5" y="310.1" transform="matrix(0.7072 -0.707 0.707 0.7072 -217.0772 96.4488)" class="st3" width="380.8" height="0.5"/>
			</g>
			<g>
				
					<rect x="-168" y="306.7" transform="matrix(0.7072 -0.707 0.707 0.7072 -210.4728 105.7251)" class="st3" width="380.8" height="0.5"/>
			</g>
			<g>
				
					<rect x="-153.5" y="303.4" transform="matrix(0.7071 -0.7071 0.7071 0.7071 -203.8994 115.0403)" class="st3" width="380.8" height="0.5"/>
			</g>
			<g>
				
					<rect x="-139" y="300.1" transform="matrix(0.7071 -0.7071 0.7071 0.7071 -197.2975 124.3226)" class="st3" width="380.8" height="0.5"/>
			</g>
			<g>
				
					<rect x="-124.5" y="296.7" transform="matrix(0.7071 -0.7071 0.7071 0.7071 -190.6956 133.6047)" class="st3" width="380.8" height="0.5"/>
			</g>
			<g>
				
					<rect x="-110" y="293.4" transform="matrix(0.707 -0.7072 0.7072 0.707 -184.112 142.9183)" class="st3" width="380.8" height="0.5"/>
			</g>
			<g>
				
					<rect x="-95.5" y="290.1" transform="matrix(0.7071 -0.7071 0.7071 0.7071 -177.4923 152.1692)" class="st3" width="380.8" height="0.5"/>
			</g>
			<g>
				
					<rect x="-81" y="286.8" transform="matrix(0.7071 -0.7071 0.7071 0.7071 -170.8904 161.4515)" class="st3" width="380.8" height="0.5"/>
			</g>
			<g>
				
					<rect x="-66.5" y="283.4" transform="matrix(0.707 -0.7072 0.7072 0.707 -164.3045 170.7743)" class="st3" width="380.8" height="0.5"/>
			</g>
			<g>
				
					<rect x="-52" y="280.1" transform="matrix(0.7071 -0.7071 0.7071 0.7071 -157.6867 180.0157)" class="st3" width="380.8" height="0.5"/>
			</g>
			<g>
				
					<rect x="-37.5" y="276.8" transform="matrix(0.707 -0.7072 0.7072 0.707 -151.095 189.3331)" class="st3" width="380.8" height="0.5"/>
			</g>
			<g>
				
					<rect x="-22.9" y="273.5" transform="matrix(0.7071 -0.7071 0.7071 0.7071 -144.4849 198.5884)" class="st3" width="380.8" height="0.5"/>
			</g>
			<g>
				
					<rect x="-8.4" y="270.1" transform="matrix(0.7071 -0.7071 0.7071 0.7071 -137.8811 207.8623)" class="st3" width="380.8" height="0.5"/>
			</g>
			<g>
				
					<rect x="6.1" y="266.8" transform="matrix(0.7071 -0.7071 0.7071 0.7071 -131.2793 217.1444)" class="st3" width="380.8" height="0.5"/>
			</g>
			<g>
				
					<rect x="20.6" y="263.5" transform="matrix(0.7072 -0.707 0.707 0.7072 -124.6721 226.3792)" class="st3" width="380.8" height="0.5"/>
			</g>
			<g>
				
					<rect x="35.1" y="260.1" transform="matrix(0.7071 -0.7071 0.7071 0.7071 -118.0755 235.7089)" class="st3" width="380.8" height="0.5"/>
			</g>
			<g>
				
					<rect x="49.6" y="256.8" transform="matrix(0.7071 -0.7071 0.7071 0.7071 -111.4733 244.9809)" class="st3" width="380.8" height="0.5"/>
			</g>
			<g>
				
					<rect x="64.1" y="253.5" transform="matrix(0.7071 -0.7071 0.7071 0.7071 -104.8719 254.2731)" class="st3" width="380.8" height="0.5"/>
			</g>
			<g>
				
					<rect x="78.6" y="250.2" transform="matrix(0.7071 -0.7071 0.7071 0.7071 -98.27 263.5554)" class="st3" width="380.8" height="0.5"/>
			</g>
			<g>
				
					<rect x="93.1" y="246.8" transform="matrix(0.7071 -0.7071 0.7071 0.7071 -91.6681 272.8376)" class="st3" width="380.8" height="0.5"/>
			</g>
			<g>
				
					<rect x="107.6" y="243.5" transform="matrix(0.7071 -0.7071 0.7071 0.7071 -85.0663 282.1197)" class="st3" width="380.8" height="0.5"/>
			</g>
			<g>
				
					<rect x="122.1" y="240.2" transform="matrix(0.7072 -0.707 0.707 0.7072 -78.47 291.3589)" class="st3" width="380.8" height="0.5"/>
			</g>
			<g>
				
					<rect x="136.6" y="236.8" transform="matrix(0.7071 -0.7071 0.7071 0.7071 -71.8625 300.6841)" class="st3" width="380.8" height="0.5"/>
			</g>
			<g>
				
					<rect x="151.1" y="233.5" transform="matrix(0.7071 -0.7071 0.7071 0.7071 -65.2607 309.9664)" class="st3" width="380.8" height="0.5"/>
			</g>
			<g>
				
					<rect x="165.6" y="230.2" transform="matrix(0.7071 -0.7071 0.7071 0.7071 -58.6588 319.2485)" class="st3" width="380.8" height="0.5"/>
			</g>
			<g>
				
					<rect x="180.1" y="226.9" transform="matrix(0.7071 -0.7071 0.7071 0.7071 -52.057 328.5306)" class="st3" width="380.8" height="0.5"/>
			</g>
			<g>
				
					<rect x="194.6" y="223.5" transform="matrix(0.7071 -0.7071 0.7071 0.7071 -45.4512 337.8275)" class="st3" width="380.8" height="0.5"/>
			</g>
		</g>
		<g class="st2">
			<g>
				<g>
					
						<radialGradient id="SVGID_5_" cx="147.3253" cy="275.885" r="125.0125" gradientTransform="matrix(0.9935 -0.1137 0.1137 0.9935 183.1212 -149.4852)" gradientUnits="userSpaceOnUse">
						<stop  offset="0" style="stop-color:#FFFFFF"/>
						<stop  offset="1.156944e-02" style="stop-color:#F7F7F7"/>
						<stop  offset="8.845389e-02" style="stop-color:#C3C3C3"/>
						<stop  offset="0.1707" style="stop-color:#959595"/>
						<stop  offset="0.2564" style="stop-color:#6D6D6D"/>
						<stop  offset="0.3465" style="stop-color:#4B4B4B"/>
						<stop  offset="0.4422" style="stop-color:#303030"/>
						<stop  offset="0.5455" style="stop-color:#1A1A1A"/>
						<stop  offset="0.6601" style="stop-color:#0B0B0B"/>
						<stop  offset="0.7949" style="stop-color:#030303"/>
						<stop  offset="1" style="stop-color:#000000"/>
					</radialGradient>
					<polygon class="st4" points="526.6,178.7 284.9,286.7 243.3,193.7 485.1,85.7 					"/>
					
						<radialGradient id="SVGID_6_" cx="-251.0282" cy="439.6133" r="125.0164" gradientTransform="matrix(2.2185 -0.6609 -0.2736 1.1665 1077.441 -548.8152)" gradientUnits="userSpaceOnUse">
						<stop  offset="0" style="stop-color:#FFFFFF"/>
						<stop  offset="1.156944e-02" style="stop-color:#F7F7F7"/>
						<stop  offset="8.845389e-02" style="stop-color:#C3C3C3"/>
						<stop  offset="0.1707" style="stop-color:#959595"/>
						<stop  offset="0.2564" style="stop-color:#6D6D6D"/>
						<stop  offset="0.3465" style="stop-color:#4B4B4B"/>
						<stop  offset="0.4422" style="stop-color:#303030"/>
						<stop  offset="0.5455" style="stop-color:#1A1A1A"/>
						<stop  offset="0.6601" style="stop-color:#0B0B0B"/>
						<stop  offset="0.7949" style="stop-color:#030303"/>
						<stop  offset="1" style="stop-color:#000000"/>
					</radialGradient>
					<polygon class="st5" points="723.3,130.5 141.4,390.5 99.8,297.5 681.7,37.5 					"/>
				</g>
				<g>
					
						<radialGradient id="SVGID_7_" cx="135.3805" cy="262.8666" r="179.7998" gradientTransform="matrix(0.9935 -0.1137 0.1137 0.9935 183.1212 -149.4852)" gradientUnits="userSpaceOnUse">
						<stop  offset="0" style="stop-color:#FFFFFF"/>
						<stop  offset="1.156944e-02" style="stop-color:#F7F7F7"/>
						<stop  offset="8.845389e-02" style="stop-color:#C3C3C3"/>
						<stop  offset="0.1707" style="stop-color:#959595"/>
						<stop  offset="0.2564" style="stop-color:#6D6D6D"/>
						<stop  offset="0.3465" style="stop-color:#4B4B4B"/>
						<stop  offset="0.4422" style="stop-color:#303030"/>
						<stop  offset="0.5455" style="stop-color:#1A1A1A"/>
						<stop  offset="0.6601" style="stop-color:#0B0B0B"/>
						<stop  offset="0.7949" style="stop-color:#030303"/>
						<stop  offset="1" style="stop-color:#000000"/>
					</radialGradient>
					<polygon class="st6" points="585.9,198.2 238.2,353.6 178.4,219.8 526.1,64.4 					"/>
					
						<radialGradient id="SVGID_8_" cx="-249.3464" cy="438.9241" r="179.8053" gradientTransform="matrix(2.2185 -0.6609 -0.2736 1.1665 1077.441 -548.8152)" gradientUnits="userSpaceOnUse">
						<stop  offset="0" style="stop-color:#FFFFFF"/>
						<stop  offset="1.156944e-02" style="stop-color:#F7F7F7"/>
						<stop  offset="8.845389e-02" style="stop-color:#C3C3C3"/>
						<stop  offset="0.1707" style="stop-color:#959595"/>
						<stop  offset="0.2564" style="stop-color:#6D6D6D"/>
						<stop  offset="0.3465" style="stop-color:#4B4B4B"/>
						<stop  offset="0.4422" style="stop-color:#303030"/>
						<stop  offset="0.5455" style="stop-color:#1A1A1A"/>
						<stop  offset="0.6601" style="stop-color:#0B0B0B"/>
						<stop  offset="0.7949" style="stop-color:#030303"/>
						<stop  offset="1" style="stop-color:#000000"/>
					</radialGradient>
					<polygon class="st7" points="868.8,128.9 31.8,502.8 -27.9,369 809,-4.9 					"/>
				</g>
			</g>
			<g>
				<g>
					
						<radialGradient id="SVGID_9_" cx="156.0188" cy="279.4803" r="167.9853" gradientTransform="matrix(0.9935 -0.1137 0.1137 0.9935 183.1212 -149.4852)" gradientUnits="userSpaceOnUse">
						<stop  offset="0" style="stop-color:#FFFFFF"/>
						<stop  offset="1.156944e-02" style="stop-color:#F7F7F7"/>
						<stop  offset="8.845389e-02" style="stop-color:#C3C3C3"/>
						<stop  offset="0.1707" style="stop-color:#959595"/>
						<stop  offset="0.2564" style="stop-color:#6D6D6D"/>
						<stop  offset="0.3465" style="stop-color:#4B4B4B"/>
						<stop  offset="0.4422" style="stop-color:#303030"/>
						<stop  offset="0.5455" style="stop-color:#1A1A1A"/>
						<stop  offset="0.6601" style="stop-color:#0B0B0B"/>
						<stop  offset="0.7949" style="stop-color:#030303"/>
						<stop  offset="1" style="stop-color:#000000"/>
					</radialGradient>
					<polygon class="st8" points="592.6,205.7 267.8,350.8 211.9,225.8 536.8,80.7 					"/>
					
						<radialGradient id="SVGID_10_" cx="-238.9261" cy="455.1802" r="167.9906" gradientTransform="matrix(2.2185 -0.6609 -0.2736 1.1665 1077.441 -548.8152)" gradientUnits="userSpaceOnUse">
						<stop  offset="0" style="stop-color:#FFFFFF"/>
						<stop  offset="1.156944e-02" style="stop-color:#F7F7F7"/>
						<stop  offset="8.845389e-02" style="stop-color:#C3C3C3"/>
						<stop  offset="0.1707" style="stop-color:#959595"/>
						<stop  offset="0.2564" style="stop-color:#6D6D6D"/>
						<stop  offset="0.3465" style="stop-color:#4B4B4B"/>
						<stop  offset="0.4422" style="stop-color:#303030"/>
						<stop  offset="0.5455" style="stop-color:#1A1A1A"/>
						<stop  offset="0.6601" style="stop-color:#0B0B0B"/>
						<stop  offset="0.7949" style="stop-color:#030303"/>
						<stop  offset="1" style="stop-color:#000000"/>
					</radialGradient>
					<polygon class="st9" points="856.9,140.9 75,490.2 19.1,365.2 801.1,15.9 					"/>
				</g>
				<g>
					
						<radialGradient id="SVGID_11_" cx="139.968" cy="261.9868" r="241.6055" gradientTransform="matrix(0.9935 -0.1137 0.1137 0.9935 183.1212 -149.4852)" gradientUnits="userSpaceOnUse">
						<stop  offset="0" style="stop-color:#FFFFFF"/>
						<stop  offset="1.156944e-02" style="stop-color:#F7F7F7"/>
						<stop  offset="8.845389e-02" style="stop-color:#C3C3C3"/>
						<stop  offset="0.1707" style="stop-color:#959595"/>
						<stop  offset="0.2564" style="stop-color:#6D6D6D"/>
						<stop  offset="0.3465" style="stop-color:#4B4B4B"/>
						<stop  offset="0.4422" style="stop-color:#303030"/>
						<stop  offset="0.5455" style="stop-color:#1A1A1A"/>
						<stop  offset="0.6601" style="stop-color:#0B0B0B"/>
						<stop  offset="0.7949" style="stop-color:#030303"/>
						<stop  offset="1" style="stop-color:#000000"/>
					</radialGradient>
					<polygon class="st10" points="672.3,231.9 205.1,440.6 124.8,260.8 592,52.1 					"/>
					
						<radialGradient id="SVGID_12_" cx="-236.6661" cy="454.2541" r="241.613" gradientTransform="matrix(2.2185 -0.6609 -0.2736 1.1665 1077.441 -548.8152)" gradientUnits="userSpaceOnUse">
						<stop  offset="0" style="stop-color:#FFFFFF"/>
						<stop  offset="1.156944e-02" style="stop-color:#F7F7F7"/>
						<stop  offset="8.845389e-02" style="stop-color:#C3C3C3"/>
						<stop  offset="0.1707" style="stop-color:#959595"/>
						<stop  offset="0.2564" style="stop-color:#6D6D6D"/>
						<stop  offset="0.3465" style="stop-color:#4B4B4B"/>
						<stop  offset="0.4422" style="stop-color:#303030"/>
						<stop  offset="0.5455" style="stop-color:#1A1A1A"/>
						<stop  offset="0.6601" style="stop-color:#0B0B0B"/>
						<stop  offset="0.7949" style="stop-color:#030303"/>
						<stop  offset="1" style="stop-color:#000000"/>
					</radialGradient>
					<polygon class="st11" points="1052.4,138.7 -72.2,641.1 -152.5,461.3 972.1,-41.1 					"/>
				</g>
			</g>
		</g>
	</g>
</g>
<text transform="matrix(0.9249 0 0 1 52.7274 201.6901)" class="st12 st13 st14">CompInfo</text>
</svg>
